<svg xmlns="http://www.w3.org/2000/svg" viewBox="0 0 1177 1024" width="128" height="128">
  <path d="M660.992 636.2624l-34.1504 44.0832c-51.968 67.0208-137.728 50.2272-159.9488-31.744l-21.4016-79.1552c-5.12-18.944-29.952-45.3632-49.152-52.0192l-77.6192-26.88c-80.896-28.0576-91.648-115.2-19.6608-161.792l69.5296-44.9536c17.0496-11.0592 34.9184-42.5984 35.4816-62.3616l2.304-82.176C408.832 54.272 488.448 18.0736 554.6496 70.9632l64.0512 51.0464c15.872 12.6464 52.0704 19.6608 71.7824 13.824l79.36-23.552c81.7152-24.2688 141.9776 39.6288 110.9504 119.3472l-29.8496 76.9536c-7.168 18.432-2.8672 53.9648 8.4992 70.2464l46.592 67.072c48.9472 70.2464 5.6832 146.4832-79.5648 142.4896l-50.944-2.4064c-21.504-1.024-102.6048 34.9184-114.5344 50.2784z m-88.9344-68.864c34.7136-44.9024 151.3472-96.512 208.7424-93.7984l7.7312 0.3584-21.4528-30.8224c-32.768-47.0016-41.728-121.9072-20.992-175.2576l13.6704-35.2768-37.2736 11.0592c-54.8864 16.3328-129.3312 1.8944-173.9264-33.6896l-30.9248-24.6272-1.0752 39.2704c-1.6384 56.8832-38.8096 122.5216-86.8864 153.6l-31.8976 20.6336 35.4304 12.288c54.272 18.7904 106.0864 73.984 120.8832 129.024l10.1376 37.376 7.8336-10.1376z m-224.1536 264.192v-41.6768a41.2672 41.2672 0 1 1 82.5856 0v41.6768h41.6768a41.2672 41.2672 0 1 1 0 82.5856h-41.6768v41.6768a41.2672 41.2672 0 0 1-82.5856 0v-41.6768h-41.6768a41.2672 41.2672 0 0 1 0-82.5856h41.6768z m314.1632-312.1152l1.024-0.5632a48.3328 48.3328 0 0 1 65.9968 17.664l233.2672 404.0192a48.3328 48.3328 0 0 1-17.7152 66.048l-1.024 0.5632a48.3328 48.3328 0 0 1-65.9968-17.664l-233.2672-404.0192a48.3328 48.3328 0 0 1 17.7152-66.048z m410.5728-224.6656c-34.304 0-62.1568-27.7504-62.1568-61.952 0-34.2016 27.8528-61.952 62.1568-61.952 34.304 0 62.1056 27.7504 62.1056 61.952 0 34.2016-27.8016 61.952-62.1056 61.952zM63.488 204.8C29.2352 204.8 1.4336 177.0496 1.4336 142.848c0-34.2016 27.8016-61.952 62.1056-61.952s62.1568 27.7504 62.1568 61.952C125.696 177.1008 97.792 204.8 63.488 204.8zM1114.112 790.272c-34.304 0-62.1568-27.6992-62.1568-61.952 0-34.1504 27.8528-61.9008 62.1568-61.9008 34.304 0 62.1056 27.7504 62.1056 61.952 0 34.2016-27.8016 61.952-62.1056 61.952z" fill="#3b82f6"/>
</svg>
